<svg id="visual" viewBox="0 0 822.45 226.09" width="822.45" height="226.09" xmlns="http://www.w3.org/2000/svg" xmlns:xlink="http://www.w3.org/1999/xlink" version="1.1"><path d="M0 135L6 149.2C12 163.3 24 191.7 36 200C48 208.3 60 196.7 71.8 187.7C83.7 178.7 95.3 172.3 107.2 159.8C119 147.3 131 128.7 143 123.2C155 117.7 167 125.3 179 125.3C191 125.3 203 117.7 214.8 120.8C226.7 124 238.3 138 250.2 142.2C262 146.3 274 140.7 286 150.7C298 160.7 310 186.3 322 179.5C334 172.7 346 133.3 357.8 114.5C369.7 95.7 381.3 97.3 393.2 112C405 126.7 417 154.3 429 149.3C441 144.3 453 106.7 465 107.5C477 108.3 489 147.7 500.8 168.7C512.7 189.7 524.3 192.3 536.2 179C548 165.7 560 136.3 572 111.2C584 86 596 65 608 78.5C620 92 632 140 643.8 163.2C655.7 186.3 667.3 184.7 679.2 160.7C691 136.7 703 90.3 715 68C727 45.7 739 47.3 751 47.7C763 48 775 47 786.8 60.3C798.7 73.7 810.3 101.3 816.2 115.2L822 129L822 227L816.2 227C810.3 227 798.7 227 786.8 227C775 227 763 227 751 227C739 227 727 227 715 227C703 227 691 227 679.2 227C667.3 227 655.7 227 643.8 227C632 227 620 227 608 227C596 227 584 227 572 227C560 227 548 227 536.2 227C524.3 227 512.7 227 500.8 227C489 227 477 227 465 227C453 227 441 227 429 227C417 227 405 227 393.2 227C381.3 227 369.7 227 357.8 227C346 227 334 227 322 227C310 227 298 227 286 227C274 227 262 227 250.2 227C238.3 227 226.7 227 214.8 227C203 227 191 227 179 227C167 227 155 227 143 227C131 227 119 227 107.2 227C95.3 227 83.7 227 71.8 227C60 227 48 227 36 227C24 227 12 227 6 227L0 227Z" fill="#6dc1ce" stroke-linecap="round" stroke-linejoin="miter"></path></svg>