<svg id="visual" viewBox="0 0 822.45 226.09" width="822.45" height="226.09" xmlns="http://www.w3.org/2000/svg" xmlns:xlink="http://www.w3.org/1999/xlink" version="1.1"><path d="M0 208L4.5 205.2C9 202.3 18 196.7 26.8 193.7C35.7 190.7 44.3 190.3 53.2 194C62 197.7 71 205.3 79.8 209C88.7 212.7 97.3 212.3 106.2 211C115 209.7 124 207.3 132.8 206.7C141.7 206 150.3 207 159.2 208.3C168 209.7 177 211.3 185.8 212.5C194.7 213.7 203.3 214.3 212.2 215.2C221 216 230 217 238.8 217C247.7 217 256.3 216 265.2 211.3C274 206.7 283 198.3 291.8 193.5C300.7 188.7 309.3 187.3 318.2 187.7C327 188 336 190 344.8 193.7C353.7 197.3 362.3 202.7 371.2 206C380 209.3 389 210.7 397.8 208C406.7 205.3 415.3 198.7 424.2 194.3C433 190 442 188 451 188.7C460 189.3 469 192.7 477.8 195.8C486.7 199 495.3 202 504.2 205.8C513 209.7 522 214.3 530.8 216.8C539.7 219.3 548.3 219.7 557.2 217.5C566 215.3 575 210.7 583.8 209.2C592.7 207.7 601.3 209.3 610.2 210C619 210.7 628 210.3 636.8 207.8C645.7 205.3 654.3 200.7 663.2 196.7C672 192.7 681 189.3 689.8 193C698.7 196.7 707.3 207.3 716.2 209C725 210.7 734 203.3 742.8 201.3C751.7 199.3 760.3 202.7 769.2 201.3C778 200 787 194 795.8 193.8C804.7 193.7 813.3 199.3 817.7 202.2L822 205L822 227L817.7 227C813.3 227 804.7 227 795.8 227C787 227 778 227 769.2 227C760.3 227 751.7 227 742.8 227C734 227 725 227 716.2 227C707.3 227 698.7 227 689.8 227C681 227 672 227 663.2 227C654.3 227 645.7 227 636.8 227C628 227 619 227 610.2 227C601.3 227 592.7 227 583.8 227C575 227 566 227 557.2 227C548.3 227 539.7 227 530.8 227C522 227 513 227 504.2 227C495.3 227 486.7 227 477.8 227C469 227 460 227 451 227C442 227 433 227 424.2 227C415.3 227 406.7 227 397.8 227C389 227 380 227 371.2 227C362.3 227 353.7 227 344.8 227C336 227 327 227 318.2 227C309.3 227 300.7 227 291.8 227C283 227 274 227 265.2 227C256.3 227 247.7 227 238.8 227C230 227 221 227 212.2 227C203.3 227 194.7 227 185.8 227C177 227 168 227 159.2 227C150.3 227 141.7 227 132.8 227C124 227 115 227 106.2 227C97.3 227 88.7 227 79.8 227C71 227 62 227 53.2 227C44.3 227 35.7 227 26.8 227C18 227 9 227 4.5 227L0 227Z" fill="#301991" stroke-linecap="round" stroke-linejoin="miter"></path></svg>