<svg id="visual" viewBox="0 0 822.45 226.09" width="822.45" height="226.09" xmlns="http://www.w3.org/2000/svg" xmlns:xlink="http://www.w3.org/1999/xlink" version="1.1"><path d="M0 164L4.5 158C9 152 18 140 26.8 147.7C35.7 155.3 44.3 182.7 53.2 189.8C62 197 71 184 79.8 167.3C88.7 150.7 97.3 130.3 106.2 106C115 81.7 124 53.3 132.8 66.3C141.7 79.3 150.3 133.7 159.2 136.7C168 139.7 177 91.3 185.8 88C194.7 84.7 203.3 126.3 212.2 140.3C221 154.3 230 140.7 238.8 148.8C247.7 157 256.3 187 265.2 179.2C274 171.3 283 125.7 291.8 121.3C300.7 117 309.3 154 318.2 149C327 144 336 97 344.8 97.8C353.7 98.7 362.3 147.3 371.2 147.3C380 147.3 389 98.7 397.8 66.5C406.7 34.3 415.3 18.7 424.2 24.2C433 29.7 442 56.3 451 61.8C460 67.3 469 51.7 477.8 64.5C486.7 77.3 495.3 118.7 504.2 139.5C513 160.3 522 160.7 530.8 135.2C539.7 109.7 548.3 58.3 557.2 68.3C566 78.3 575 149.7 583.8 180.2C592.7 210.7 601.3 200.3 610.2 195.2C619 190 628 190 636.8 186.2C645.7 182.3 654.3 174.7 663.2 171.5C672 168.3 681 169.7 689.8 146.2C698.7 122.7 707.3 74.3 716.2 70.8C725 67.3 734 108.7 742.8 106.2C751.7 103.7 760.3 57.3 769.2 36.8C778 16.3 787 21.7 795.8 30.3C804.7 39 813.3 51 817.7 57L822 63L822 227L817.7 227C813.3 227 804.7 227 795.8 227C787 227 778 227 769.2 227C760.3 227 751.7 227 742.8 227C734 227 725 227 716.2 227C707.3 227 698.7 227 689.8 227C681 227 672 227 663.2 227C654.3 227 645.7 227 636.8 227C628 227 619 227 610.2 227C601.3 227 592.7 227 583.8 227C575 227 566 227 557.2 227C548.3 227 539.7 227 530.8 227C522 227 513 227 504.2 227C495.3 227 486.7 227 477.8 227C469 227 460 227 451 227C442 227 433 227 424.2 227C415.3 227 406.7 227 397.8 227C389 227 380 227 371.2 227C362.3 227 353.7 227 344.8 227C336 227 327 227 318.2 227C309.3 227 300.7 227 291.8 227C283 227 274 227 265.2 227C256.3 227 247.7 227 238.8 227C230 227 221 227 212.2 227C203.3 227 194.7 227 185.8 227C177 227 168 227 159.2 227C150.3 227 141.7 227 132.8 227C124 227 115 227 106.2 227C97.3 227 88.7 227 79.8 227C71 227 62 227 53.2 227C44.3 227 35.7 227 26.8 227C18 227 9 227 4.5 227L0 227Z" fill="#3f2aa3" stroke-linecap="round" stroke-linejoin="miter"></path></svg>